PathFileType	4	(X/Y/Z)	OpenSim_Sub02_CSBaseline_Accel.trc
DataRate	CameraRate	NumFrames	NumMarkers	Units	OrigDataRate	OrigDataStartFrame	OrigNumFrames
100	100	17	8	m	100	6175	7057
Frame#	Time	torso_imu_offset_imu	pelvis_imu_offset_imu	tibia_r_imu_offset_imu	femur_r_imu_offset_imu	tibia_l_imu_offset_imu	femur_l_imu_offset_imu	toes_r_imu_offset_imu	toes_l_imu_offset_imu
				X1	Y1	Z1	X2	Y2	Z2	X3	Y3	Z3	X4	Y4	Z4	X5	Y5	Z5	X6	Y6	Z6	X7	Y7	Z7	X8		Y8	Z8	

6175	61.74000000	8.02961867	0.70342987	6.41868407	8.43174652	-2.48752956	4.85372377	7.10356500	8.40238225	1.56664729	10.45398037	-1.61540618	2.16142063	9.90583687	4.69506288	0.56065224	9.48780268	0.52301823	-1.84643782	11.50850123	-1.02340806	7.15442783	3.74249999	0.48481291	11.86801944
6176	61.75000000	8.48041797	0.56893477	6.61340090	8.63736199	-2.34948663	4.72229052	6.32437565	8.85760658	2.14570987	10.49869870	-1.80491945	2.01891501	9.56390625	3.33498136	-0.63131407	9.34008182	-1.10443094	-1.36520513	10.58145431	-1.41635805	7.54300173	3.62129624	1.07722373	11.97209966
6177	61.76000000	8.76599046	0.46892876	6.76745890	8.69302560	-2.05946016	4.44832591	5.26473867	9.10413774	2.78968715	10.40364749	-1.49903774	1.91168627	9.66682807	0.62909479	-1.47595875	9.43675861	-1.86578482	-1.72854608	5.99366722	-2.52877480	5.92742215	3.55339709	1.22199791	11.74694016
6178	61.77000000	8.86472709	0.43768454	6.89957888	8.78508440	-1.67663308	4.19580473	4.12345025	8.99218609	3.23894603	10.28764191	-1.03961453	1.78918904	9.71052783	-2.13106852	-2.55034315	9.14058821	-2.37050820	-2.35952179	5.57081256	1.60575807	8.61926395	3.33510052	1.28328465	11.89693206
6179	61.78000000	8.92626136	0.44288877	7.01516957	8.97085645	-1.20593887	4.07085536	3.06986842	8.76174638	3.90312133	10.30699583	-1.06585582	1.97820998	9.70731221	-3.82883888	-2.99983908	8.96650553	-2.33455215	-3.01901697	16.49375577	6.15703858	16.83070726	3.62205889	1.33150044	11.88069238
6180	61.79000000	9.10383545	0.36944971	7.21181134	9.29940248	-0.71101049	3.94184248	2.18369615	9.28848473	3.96845876	10.73518481	-1.15307278	2.28150432	9.88340926	-4.23806951	-2.37311315	8.83267856	-2.15456183	-3.22030724	13.61903837	-2.08477787	16.74338267	4.00955252	1.22480749	11.79345065
6181	61.80000000	9.34743961	0.35920213	7.37978577	9.73007401	-0.30444655	3.87816109	1.20326699	9.95116694	2.86000486	11.35533826	-1.13796280	2.59282557	10.10114399	-3.23896458	-1.82618397	9.06370648	-1.69816141	-3.30977803	7.21609147	-8.09691520	11.95723464	3.99986514	0.95786493	11.66957728
6182	61.81000000	9.45084166	0.36858962	7.40863719	10.06866616	0.00990533	3.79518252	0.94356778	9.57992040	2.19995277	11.92856000	-1.22861963	2.66116843	10.27911497	-1.79188453	-1.13888051	9.02790219	-1.86012752	-3.71503811	5.12434362	-9.47482221	8.86298519	3.68765530	1.04161483	12.17658827
6183	61.82000000	9.57806935	0.37443954	7.69473119	10.15445886	0.06526478	3.74002489	2.04674833	8.51464773	2.44292972	12.13070290	-1.32819195	2.51708972	10.55484780	-0.75899742	-1.10433904	9.13009360	-1.87721144	-3.60754832	3.84553235	-8.87312675	6.58900747	3.71523758	0.83349265	11.88581426
6184	61.83000000	9.51721969	0.39334863	7.89488255	10.10382845	0.01096555	3.79574575	3.77559432	7.29778283	3.15494885	11.81178249	-1.56704173	2.37303443	10.25001536	0.43352908	-0.55816320	9.30072065	-1.62382787	-3.52666795	3.43415290	-7.07188794	5.98009369	3.96159875	0.87403166	11.81822197
6185	61.84000000	9.24305718	0.32563007	7.99380712	10.00777019	-0.06465583	3.78118786	4.97550808	6.20705596	4.31509605	11.04608919	-1.83984069	2.17733175	10.12954004	1.39286878	-0.36583735	9.43201308	-1.27070054	-3.20250944	2.48421494	-5.81936853	6.18200080	3.50972161	0.95755133	11.85718383
6186	61.85000000	8.90772853	0.22805857	7.94286777	9.82437674	-0.30300362	3.74652542	5.11352101	5.67203301	4.85855905	10.22213234	-1.92511252	2.03537908	9.91335816	1.33658491	-0.46709912	9.36588632	-0.53777932	-2.97209612	2.66280349	-2.94323161	6.70342546	3.51790882	1.07908629	11.81365223
6187	61.86000000	8.57075184	0.15219661	7.80463865	9.57987116	-0.64065223	3.67016539	4.98062672	5.38077886	4.59096127	9.61172712	-2.03118494	1.95570295	9.76942305	0.92161607	-0.64985382	9.03160888	-0.11951107	-2.66449119	2.97060632	-1.14920618	7.33826528	3.36146568	1.22030570	11.78328727
6188	61.87000000	8.14907562	0.06262269	7.66722059	9.28048004	-0.98558155	3.51141868	5.16677141	4.66308714	4.48034911	9.27495462	-2.17575907	1.92019180	9.86107882	0.53385819	-0.66329483	9.52669051	0.34087160	-2.50580724	3.68500474	-0.81048049	7.91183655	3.61067872	1.11190228	11.79935180
6189	61.88000000	7.89972415	-0.05344260	7.49946198	9.11713637	-1.27638945	3.34136814	5.57342259	3.21809879	4.87206155	8.88928046	-2.31626099	1.89802261	9.80422543	0.13960505	-0.50917070	9.15132963	0.50514590	-2.31725897	4.38465305	-1.51074201	8.36540743	3.84410101	1.02382970	11.67834859
6190	61.89000000	7.77237703	-0.05872670	7.35220438	9.03100862	-1.43157687	3.23194657	5.67152786	2.20529599	5.22900643	8.57274867	-2.37029443	1.86944561	9.67289097	-0.18754743	-0.36730531	9.11328561	0.42511904	-2.13838609	5.15784787	-1.57580420	8.84654502	3.78662309	1.06810950	11.64136017
6191	61.90000000	7.62876218	-0.02939602	7.25905954	8.97472878	-1.43814777	3.23474827	5.41962406	2.36329303	5.24829358	8.36633767	-2.40573696	1.90285399	9.63207399	-0.39149080	-0.14299860	9.11567583	0.31587355	-1.97768407	5.62322131	-0.17163509	9.28981624	3.65377756	1.00866254	11.88769652
